<svg width="134" height="40" viewBox="0 0 134 40" fill="none" xmlns="http://www.w3.org/2000/svg">
<path d="M7.36 31V14.072H0.48V9.624H19.264V14.072H12.384V31H7.36ZM25.99 12.504C25.2007 12.504 24.518 12.2267 23.942 11.672C23.3873 11.096 23.11 10.4133 23.11 9.624C23.11 8.81333 23.3873 8.13067 23.942 7.576C24.518 7.02133 25.2007 6.744 25.99 6.744C26.8007 6.744 27.4833 7.02133 28.038 7.576C28.5927 8.13067 28.87 8.81333 28.87 9.624C28.87 10.4133 28.5927 11.096 28.038 11.672C27.4833 12.2267 26.8007 12.504 25.99 12.504ZM23.526 31V18.84H20.518V15.128H28.422V31H23.526ZM38.7398 31.384C36.9904 31.384 35.5078 31.032 34.2918 30.328C33.0971 29.624 32.1798 28.6427 31.5398 27.384C30.9211 26.104 30.6118 24.632 30.6118 22.968C30.6118 21.304 30.9531 19.8533 31.6358 18.616C32.3184 17.3573 33.2678 16.3867 34.4838 15.704C35.7211 15.0213 37.1398 14.68 38.7398 14.68C39.6571 14.68 40.5638 14.808 41.4598 15.064C42.3771 15.32 43.2198 15.7573 43.9878 16.376C44.7771 16.9733 45.4171 17.7947 45.9078 18.84L41.8438 20.312C41.5878 19.6293 41.2038 19.1493 40.6918 18.872C40.2011 18.5947 39.6464 18.456 39.0278 18.456C38.4518 18.456 37.8971 18.6053 37.3638 18.904C36.8304 19.1813 36.3931 19.6507 36.0518 20.312C35.7318 20.9733 35.5718 21.8693 35.5718 23C35.5718 24.152 35.7424 25.0693 36.0838 25.752C36.4251 26.4133 36.8518 26.8933 37.3638 27.192C37.8971 27.4693 38.4518 27.608 39.0278 27.608C39.7104 27.608 40.2864 27.48 40.7558 27.224C41.2251 26.9467 41.5984 26.5733 41.8758 26.104L45.8438 27.544C45.3104 28.504 44.6491 29.272 43.8598 29.848C43.0704 30.4027 42.2278 30.7973 41.3318 31.032C40.4571 31.2667 39.5931 31.384 38.7398 31.384ZM48.0688 31V9.624H52.9328V21.144L58.2448 15.128H64.0048L57.7968 21.752L64.4848 31H58.7248L54.5968 25.24L52.9328 27V31H48.0688ZM73.1595 31.384C71.4528 31.384 69.9382 31.0533 68.6155 30.392C67.3142 29.7093 66.2902 28.7387 65.5435 27.48C64.8182 26.2213 64.4555 24.7173 64.4555 22.968C64.4555 21.2827 64.8395 19.8213 65.6075 18.584C66.3968 17.3467 67.4315 16.3867 68.7115 15.704C70.0128 15.0213 71.4315 14.68 72.9675 14.68C74.7168 14.68 76.2102 15.096 77.4475 15.928C78.7062 16.7387 79.6555 17.8693 80.2955 19.32C80.9355 20.7493 81.2022 22.4027 81.0955 24.28H69.3515C69.4368 25.3893 69.8422 26.2213 70.5675 26.776C71.3142 27.3307 72.1355 27.608 73.0315 27.608C73.7782 27.608 74.4182 27.5013 74.9515 27.288C75.5062 27.0533 75.9328 26.7653 76.2315 26.424L80.1035 27.832C79.2715 29.048 78.2262 29.944 76.9675 30.52C75.7302 31.096 74.4608 31.384 73.1595 31.384ZM69.3515 21.4H76.5835C76.5622 20.376 76.2102 19.608 75.5275 19.096C74.8448 18.5627 74.0342 18.296 73.0955 18.296C72.1782 18.296 71.3568 18.5413 70.6315 19.032C69.9275 19.5227 69.5008 20.312 69.3515 21.4ZM90.1005 31C88.7992 31 87.7645 30.8933 86.9965 30.68C86.2285 30.4453 85.6738 30.008 85.3325 29.368C85.0125 28.7067 84.8525 27.7573 84.8525 26.52V18.84H82.2285V15.128H84.8525V11.16H89.7165V15.128H93.1725V18.84H89.7165V25.24C89.7165 25.9867 89.8552 26.4773 90.1325 26.712C90.4312 26.9253 90.9752 27.032 91.7645 27.032H93.1725V31H90.1005ZM95.7615 31V27.032H98.7695V13.592H95.7615V9.624H106.77V13.592H103.826V27.032H106.77V31H95.7615Z" fill="#131312"/>
<path d="M120.645 21.1602L131.966 29.2488L128.903 33.0623L117.581 24.9736L120.645 21.1602Z" fill="#131312"/>
<ellipse cx="117.639" cy="20.4096" rx="12.6646" ry="11.4135" fill="#131312"/>
<ellipse cx="117.639" cy="20.4096" rx="12.6646" ry="11.4135" fill="#131312"/>
<rect x="110.033" y="17.957" width="1.50403" height="4.92742" fill="url(#paint0_linear_461_821)"/>
<rect x="113.451" y="14.0625" width="1.50403" height="11.2627" fill="url(#paint1_linear_461_821)"/>
<rect x="116.869" y="12.1211" width="1.50403" height="16.5923" fill="url(#paint2_linear_461_821)"/>
<rect x="120.289" y="14.0625" width="1.50403" height="11.2627" fill="url(#paint3_linear_461_821)"/>
<rect x="123.707" y="17.957" width="1.50403" height="4.92742" fill="url(#paint4_linear_461_821)"/>
<defs>
<linearGradient id="paint0_linear_461_821" x1="110.785" y1="17.957" x2="110.785" y2="22.8845" gradientUnits="userSpaceOnUse">
<stop stop-color="#38A3A5" stop-opacity="0"/>
<stop offset="0.0001" stop-color="#63EFDE"/>
<stop offset="0.9998" stop-color="#005B50" stop-opacity="0.974459"/>
<stop offset="0.9999" stop-color="#37C8B7" stop-opacity="0.015625"/>
</linearGradient>
<linearGradient id="paint1_linear_461_821" x1="114.203" y1="14.0625" x2="114.203" y2="25.3252" gradientUnits="userSpaceOnUse">
<stop stop-color="#38A3A5" stop-opacity="0"/>
<stop offset="0.0001" stop-color="#63EFDE"/>
<stop offset="0.9998" stop-color="#005B50" stop-opacity="0.974459"/>
<stop offset="0.9999" stop-color="#37C8B7" stop-opacity="0.015625"/>
</linearGradient>
<linearGradient id="paint2_linear_461_821" x1="117.621" y1="12.1211" x2="117.621" y2="28.7134" gradientUnits="userSpaceOnUse">
<stop stop-color="#38A3A5" stop-opacity="0"/>
<stop offset="0.0001" stop-color="#63EFDE"/>
<stop offset="0.9998" stop-color="#005B50" stop-opacity="0.974459"/>
<stop offset="0.9999" stop-color="#37C8B7" stop-opacity="0.015625"/>
</linearGradient>
<linearGradient id="paint3_linear_461_821" x1="121.041" y1="14.0625" x2="121.041" y2="25.3252" gradientUnits="userSpaceOnUse">
<stop stop-color="#38A3A5" stop-opacity="0"/>
<stop offset="0.0001" stop-color="#63EFDE"/>
<stop offset="0.9998" stop-color="#005B50" stop-opacity="0.974459"/>
<stop offset="0.9999" stop-color="#37C8B7" stop-opacity="0.015625"/>
</linearGradient>
<linearGradient id="paint4_linear_461_821" x1="124.459" y1="17.957" x2="124.459" y2="22.8845" gradientUnits="userSpaceOnUse">
<stop stop-color="#38A3A5" stop-opacity="0"/>
<stop offset="0.0001" stop-color="#63EFDE"/>
<stop offset="0.9998" stop-color="#005B50" stop-opacity="0.974459"/>
<stop offset="0.9999" stop-color="#37C8B7" stop-opacity="0.015625"/>
</linearGradient>
</defs>
</svg>
