<svg width="134" height="40" viewBox="0 0 134 40" fill="none" xmlns="http://www.w3.org/2000/svg">
<path d="M8.288 31C6.98667 31 5.952 30.8933 5.184 30.68C4.416 30.4453 3.86133 30.008 3.52 29.368C3.2 28.7067 3.04 27.7573 3.04 26.52V18.84H0.416V15.128H3.04V11.16H7.904V15.128H11.36V18.84H7.904V25.24C7.904 25.9867 8.04267 26.4773 8.32 26.712C8.61867 26.9253 9.16267 27.032 9.952 27.032H11.36V31H8.288ZM18.365 12.504C17.5757 12.504 16.893 12.2267 16.317 11.672C15.7623 11.096 15.485 10.4133 15.485 9.624C15.485 8.81333 15.7623 8.13067 16.317 7.576C16.893 7.02133 17.5757 6.744 18.365 6.744C19.1757 6.744 19.8583 7.02133 20.413 7.576C20.9677 8.13067 21.245 8.81333 21.245 9.624C21.245 10.4133 20.9677 11.096 20.413 11.672C19.8583 12.2267 19.1757 12.504 18.365 12.504ZM15.901 31V18.84H12.893V15.128H20.797V31H15.901ZM31.1148 31.384C29.3654 31.384 27.8828 31.032 26.6668 30.328C25.4721 29.624 24.5548 28.6427 23.9148 27.384C23.2961 26.104 22.9868 24.632 22.9868 22.968C22.9868 21.304 23.3281 19.8533 24.0108 18.616C24.6934 17.3573 25.6428 16.3867 26.8588 15.704C28.0961 15.0213 29.5148 14.68 31.1148 14.68C32.0321 14.68 32.9388 14.808 33.8348 15.064C34.7521 15.32 35.5948 15.7573 36.3628 16.376C37.1521 16.9733 37.7921 17.7947 38.2828 18.84L34.2188 20.312C33.9628 19.6293 33.5788 19.1493 33.0668 18.872C32.5761 18.5947 32.0214 18.456 31.4028 18.456C30.8268 18.456 30.2721 18.6053 29.7388 18.904C29.2054 19.1813 28.7681 19.6507 28.4268 20.312C28.1068 20.9733 27.9468 21.8693 27.9468 23C27.9468 24.152 28.1174 25.0693 28.4588 25.752C28.8001 26.4133 29.2268 26.8933 29.7388 27.192C30.2721 27.4693 30.8268 27.608 31.4028 27.608C32.0854 27.608 32.6614 27.48 33.1308 27.224C33.6001 26.9467 33.9734 26.5733 34.2508 26.104L38.2188 27.544C37.6854 28.504 37.0241 29.272 36.2348 29.848C35.4454 30.4027 34.6028 30.7973 33.7068 31.032C32.8321 31.2667 31.9681 31.384 31.1148 31.384ZM40.4438 31V9.624H45.3078V21.144L50.6198 15.128H56.3798L50.1718 21.752L56.8598 31H51.0998L46.9718 25.24L45.3078 27V31H40.4438ZM65.5345 31.384C63.8278 31.384 62.3132 31.0533 60.9905 30.392C59.6892 29.7093 58.6652 28.7387 57.9185 27.48C57.1932 26.2213 56.8305 24.7173 56.8305 22.968C56.8305 21.2827 57.2145 19.8213 57.9825 18.584C58.7718 17.3467 59.8065 16.3867 61.0865 15.704C62.3878 15.0213 63.8065 14.68 65.3425 14.68C67.0918 14.68 68.5852 15.096 69.8225 15.928C71.0812 16.7387 72.0305 17.8693 72.6705 19.32C73.3105 20.7493 73.5772 22.4027 73.4705 24.28H61.7265C61.8118 25.3893 62.2172 26.2213 62.9425 26.776C63.6892 27.3307 64.5105 27.608 65.4065 27.608C66.1532 27.608 66.7932 27.5013 67.3265 27.288C67.8812 27.0533 68.3078 26.7653 68.6065 26.424L72.4785 27.832C71.6465 29.048 70.6012 29.944 69.3425 30.52C68.1052 31.096 66.8358 31.384 65.5345 31.384ZM61.7265 21.4H68.9585C68.9372 20.376 68.5852 19.608 67.9025 19.096C67.2198 18.5627 66.4092 18.296 65.4705 18.296C64.5532 18.296 63.7318 18.5413 63.0065 19.032C62.3025 19.5227 61.8758 20.312 61.7265 21.4ZM82.4755 31C81.1742 31 80.1395 30.8933 79.3715 30.68C78.6035 30.4453 78.0488 30.008 77.7075 29.368C77.3875 28.7067 77.2275 27.7573 77.2275 26.52V18.84H74.6035V15.128H77.2275V11.16H82.0915V15.128H85.5475V18.84H82.0915V25.24C82.0915 25.9867 82.2302 26.4773 82.5075 26.712C82.8062 26.9253 83.3502 27.032 84.1395 27.032H85.5475V31H82.4755ZM88.1365 31V27.032H91.1445V13.592H88.1365V9.624H99.1445V13.592H96.2005V27.032H99.1445V31H88.1365Z" fill="#131312"/>
<path d="M114.645 21.1602L125.966 29.2488L122.903 33.0623L111.581 24.9736L114.645 21.1602Z" fill="#131312"/>
<ellipse cx="111.639" cy="20.4096" rx="12.6646" ry="11.4135" fill="#131312"/>
<ellipse cx="111.639" cy="20.4096" rx="12.6646" ry="11.4135" fill="#131312"/>
<rect x="104.033" y="17.957" width="1.50403" height="4.92742" fill="url(#paint0_linear_461_821)"/>
<rect x="107.451" y="14.0625" width="1.50403" height="11.2627" fill="url(#paint1_linear_461_821)"/>
<rect x="110.869" y="12.1211" width="1.50403" height="16.5923" fill="url(#paint2_linear_461_821)"/>
<rect x="114.289" y="14.0625" width="1.50403" height="11.2627" fill="url(#paint3_linear_461_821)"/>
<rect x="117.707" y="17.957" width="1.50403" height="4.92742" fill="url(#paint4_linear_461_821)"/>
<defs>
<linearGradient id="paint0_linear_461_821" x1="104.785" y1="17.957" x2="104.785" y2="22.8845" gradientUnits="userSpaceOnUse">
<stop stop-color="#38A3A5" stop-opacity="0"/>
<stop offset="0.0001" stop-color="#63EFDE"/>
<stop offset="0.9998" stop-color="#005B50" stop-opacity="0.974459"/>
<stop offset="0.9999" stop-color="#37C8B7" stop-opacity="0.015625"/>
</linearGradient>
<linearGradient id="paint1_linear_461_821" x1="108.203" y1="14.0625" x2="108.203" y2="25.3252" gradientUnits="userSpaceOnUse">
<stop stop-color="#38A3A5" stop-opacity="0"/>
<stop offset="0.0001" stop-color="#63EFDE"/>
<stop offset="0.9998" stop-color="#005B50" stop-opacity="0.974459"/>
<stop offset="0.9999" stop-color="#37C8B7" stop-opacity="0.015625"/>
</linearGradient>
<linearGradient id="paint2_linear_461_821" x1="111.621" y1="12.1211" x2="111.621" y2="28.7134" gradientUnits="userSpaceOnUse">
<stop stop-color="#38A3A5" stop-opacity="0"/>
<stop offset="0.0001" stop-color="#63EFDE"/>
<stop offset="0.9998" stop-color="#005B50" stop-opacity="0.974459"/>
<stop offset="0.9999" stop-color="#37C8B7" stop-opacity="0.015625"/>
</linearGradient>
<linearGradient id="paint3_linear_461_821" x1="115.041" y1="14.0625" x2="115.041" y2="25.3252" gradientUnits="userSpaceOnUse">
<stop stop-color="#38A3A5" stop-opacity="0"/>
<stop offset="0.0001" stop-color="#63EFDE"/>
<stop offset="0.9998" stop-color="#005B50" stop-opacity="0.974459"/>
<stop offset="0.9999" stop-color="#37C8B7" stop-opacity="0.015625"/>
</linearGradient>
<linearGradient id="paint4_linear_461_821" x1="118.459" y1="17.957" x2="118.459" y2="22.8845" gradientUnits="userSpaceOnUse">
<stop stop-color="#38A3A5" stop-opacity="0"/>
<stop offset="0.0001" stop-color="#63EFDE"/>
<stop offset="0.9998" stop-color="#005B50" stop-opacity="0.974459"/>
<stop offset="0.9999" stop-color="#37C8B7" stop-opacity="0.015625"/>
</linearGradient>
</defs>
</svg>
