<svg width="216" height="208" viewBox="0 0 216 208" fill="none" xmlns="http://www.w3.org/2000/svg">
<path d="M139.5 121.333H132.39L129.87 118.993C138.995 108.802 144.01 95.79 144 82.3334C144 71.1917 140.569 60.3002 134.141 51.0362C127.713 41.7723 118.576 34.5519 107.887 30.2881C97.1975 26.0244 85.4351 24.9088 74.0872 27.0825C62.7394 29.2561 52.3157 34.6213 44.1343 42.4997C35.9529 50.378 30.3813 60.4157 28.1241 71.3433C25.8669 82.2709 27.0253 93.5976 31.4531 103.891C35.8808 114.185 43.3789 122.983 52.9992 129.173C62.6194 135.363 73.9298 138.667 85.5 138.667C99.99 138.667 113.31 133.553 123.57 125.06L126 127.487V134.333L171 177.58L184.41 164.667L139.5 121.333ZM85.5 121.333C63.09 121.333 45 103.913 45 82.3334C45 60.7534 63.09 43.3334 85.5 43.3334C107.91 43.3334 126 60.7534 126 82.3334C126 103.913 107.91 121.333 85.5 121.333Z" fill="black"/>
</svg>
